<svg width="44" height="44" viewBox="0 0 44 44" fill="none" xmlns="http://www.w3.org/2000/svg">
<path d="M18.5116 25.4293C17.9747 24.8924 17.1042 24.8924 16.5674 25.4293L13.4637 28.5329C12.5503 29.4463 10.9889 28.7917 11 27.5C11 26.741 10.384 26.125 9.625 26.125C8.866 26.125 8.25 26.741 8.25 27.5V34.375C8.25 34.782 8.41773 35.1106 8.68446 35.3375C8.93329 35.5919 9.27983 35.75 9.66346 35.75H16.5C17.259 35.75 17.875 35.134 17.875 34.375C17.875 33.616 17.259 33 16.5 33C15.166 33 14.4979 31.3872 15.4412 30.4439L18.5116 27.3735C19.0485 26.8366 19.0485 25.9661 18.5116 25.4293ZM16.5 11C17.259 11 17.875 10.384 17.875 9.625C17.875 8.866 17.259 8.25 16.5 8.25H9.66354C9.2799 8.25 8.93337 8.40954 8.68454 8.66246C8.4178 8.88937 8.25007 9.218 8.25007 9.625V16.5C8.25007 17.259 8.86607 17.875 9.62507 17.875C10.3841 17.875 11 17.259 11 16.5C10.9889 15.2078 12.5509 14.5529 13.4647 15.4667L16.5673 18.5693C17.1042 19.1062 17.9747 19.1062 18.5116 18.5693C19.0485 18.0324 19.0485 17.162 18.5116 16.6251L15.4416 13.5551C14.4987 12.6122 15.1665 11 16.5 11ZM34.375 26.125C33.616 26.125 33 26.741 33 27.5C33.0111 28.7922 31.4491 29.4471 30.5353 28.5333L27.4326 25.4306C26.8957 24.8937 26.0253 24.8937 25.4884 25.4306C24.9515 25.9675 24.9516 26.8379 25.4885 27.3748L28.5585 30.4442C29.5018 31.3873 28.8338 33 27.5 33C26.741 33 26.125 33.616 26.125 34.375C26.125 35.134 26.741 35.75 27.5 35.75H34.3365C34.7215 35.75 35.0666 35.5905 35.3155 35.3361C35.5823 35.1106 35.75 34.782 35.75 34.375V27.5C35.75 26.741 35.134 26.125 34.375 26.125ZM34.3365 8.25H27.5C26.741 8.25 26.125 8.866 26.125 9.625C26.125 10.384 26.741 11 27.5 11C28.8335 11 29.5013 12.6122 28.5584 13.5552L25.487 16.6265C24.9501 17.1634 24.9501 18.0339 25.487 18.5708C26.0239 19.1077 26.8944 19.1077 27.4313 18.5708L30.535 15.4671C31.4487 14.5534 33.0106 15.2079 33 16.5C33 17.259 33.616 17.875 34.375 17.875C35.134 17.875 35.75 17.259 35.75 16.5V9.625C35.75 9.218 35.5808 8.88937 35.3155 8.66246C35.0666 8.40954 34.7202 8.25 34.3365 8.25ZM38.5 0H5.5C2.46263 0 0 2.46263 0 5.5V38.5C0 41.5374 2.46263 44 5.5 44H38.5C41.5374 44 44 41.5374 44 38.5V5.5C44 2.46263 41.5374 0 38.5 0ZM41.25 38.5C41.25 40.0194 40.0194 41.25 38.5 41.25H5.5C3.98063 41.25 2.75 40.0194 2.75 38.5V5.5C2.75 3.982 3.98063 2.75 5.5 2.75H38.5C40.0194 2.75 41.25 3.982 41.25 5.5V38.5Z" fill="#0A77BD"/>
</svg>
