<svg width="620" height="273" viewBox="0 0 620 273" fill="none" xmlns="http://www.w3.org/2000/svg">
<rect x="9" y="9" width="602" height="254.951" stroke="#0A77BD" stroke-width="18"/>
<path fill-rule="evenodd" clip-rule="evenodd" d="M196.87 34.7542L34.754 34.7542L34.754 237.399L196.87 237.399L196.87 34.7542ZM156.341 75.2831L75.283 75.2831L75.283 196.87L156.341 196.87L156.341 75.2831Z" fill="#0A77BD"/>
<path d="M208.677 34.4351L249.206 34.4351L249.206 237.08H208.677L208.677 34.4351Z" fill="#0A77BD"/>
<path d="M289.735 34.4351L330.264 34.4351V237.08L289.735 237.08V34.4351Z" fill="#0A77BD"/>
<path d="M370.793 34.4351L411.322 34.4351V237.08H370.793V34.4351Z" fill="#0A77BD"/>
<path d="M411.322 34.4351V74.964L208.677 74.964L208.677 34.4351L411.322 34.4351Z" fill="#0A77BD"/>
<rect x="544.078" y="34.7542" width="40.529" height="202.645" fill="#0A77BD"/>
<rect x="584.607" y="196.87" width="40.529" height="162.116" transform="rotate(90 584.607 196.87)" fill="#0A77BD"/>
<rect x="584.607" y="115.812" width="40.529" height="162.116" transform="rotate(90 584.607 115.812)" fill="#0A77BD"/>
<rect x="422.492" y="34.7542" width="40.529" height="121.587" fill="#0A77BD"/>
<rect x="456" y="118.525" width="119.672" height="7.18033" fill="#0A77BD"/>
</svg>
