<svg width="137" height="137" viewBox="0 0 137 137" fill="none" xmlns="http://www.w3.org/2000/svg">
<g filter="url(#filter0_i)">
<path d="M111.603 43.3013C125.41 67.2159 117.216 97.7954 93.3013 111.603C69.3866 125.41 38.8071 117.216 25 93.3013C11.1929 69.3866 19.3866 38.8071 43.3013 25C67.2159 11.1929 97.7954 19.3866 111.603 43.3013Z" fill="#2B333A"/>
</g>
<g clip-path="url(#clip0)">
<path d="M68 28.3892C45.907 28.3892 28 46.2961 28 68.3892C28 90.482 45.907 108.389 68 108.389C90.0928 108.389 108 90.482 108 68.3892C108 46.2961 90.0928 28.3892 68 28.3892ZM87.1401 71.6006L63.2805 88.0148C62.6167 88.4694 61.8441 88.7018 61.0695 88.7018C60.4459 88.7018 59.827 88.5537 59.2569 88.2559C57.9758 87.5782 57.1712 86.2497 57.1712 84.8038V51.975C57.1712 50.529 57.9758 49.2004 59.2569 48.5226C60.5381 47.8506 62.0859 47.9432 63.2805 48.7638L87.1401 65.1777C88.1959 65.9046 88.8286 67.1071 88.8286 68.3892C88.8286 69.6712 88.1961 70.8737 87.1401 71.6006Z" fill="#1F2325"/>
</g>
<defs>
<filter id="filter0_i" x="0" y="0" width="136.603" height="136.603" filterUnits="userSpaceOnUse" color-interpolation-filters="sRGB">
<feFlood flood-opacity="0" result="BackgroundImageFix"/>
<feBlend mode="normal" in="SourceGraphic" in2="BackgroundImageFix" result="shape"/>
<feColorMatrix in="SourceAlpha" type="matrix" values="0 0 0 0 0 0 0 0 0 0 0 0 0 0 0 0 0 0 127 0" result="hardAlpha"/>
<feOffset/>
<feGaussianBlur stdDeviation="1"/>
<feComposite in2="hardAlpha" operator="arithmetic" k2="-1" k3="1"/>
<feColorMatrix type="matrix" values="0 0 0 0 0 0 0 0 0 0 0 0 0 0 0 0 0 0 0.25 0"/>
<feBlend mode="normal" in2="shape" result="effect1_innerShadow"/>
</filter>
<clipPath id="clip0">
<rect width="80" height="80" fill="white" transform="translate(28 28.3892)"/>
</clipPath>
</defs>
</svg>
